<?xml version="1.0" standalone="no"?>
<!DOCTYPE svg PUBLIC "-//W3C//DTD SVG 20010904//EN"
 "http://www.w3.org/TR/2001/REC-SVG-20010904/DTD/svg10.dtd">
<svg version="1.0" xmlns="http://www.w3.org/2000/svg"
 width="5703.000000pt" height="5453.000000pt" viewBox="0 0 5703.000000 5453.000000"
 preserveAspectRatio="xMidYMid meet">

<g transform="translate(0.000000,5453.000000) scale(0.100000,-0.100000)"
fill="#000000" stroke="none">
<path d="M12490 44903 c-710 -73 -1309 -431 -1702 -1017 -193 -289 -316 -621
-364 -986 -22 -173 -15 -494 16 -670 163 -926 873 -1660 1790 -1849 428 -89
897 -50 1292 105 549 216 985 620 1239 1149 167 348 240 725 218 1127 -52 928
-678 1743 -1561 2033 -162 53 -289 81 -456 100 -113 13 -378 18 -472 8z m327
-861 c61 -43 63 -131 9 -261 -180 -426 -958 -1185 -1341 -1307 -121 -39 -190
-22 -222 54 -13 30 -14 63 -10 177 9 204 56 384 149 569 200 397 591 694 1018
770 131 24 138 24 255 22 97 -1 114 -4 142 -24z"/>
<path d="M45631 44899 c-282 -30 -619 -137 -861 -274 -634 -358 -1044 -952
-1157 -1675 -24 -159 -24 -499 1 -660 79 -513 315 -969 685 -1323 348 -333
782 -543 1270 -614 158 -22 465 -22 625 1 685 99 1275 486 1639 1074 161 260
262 539 314 867 24 154 24 497 0 654 -40 256 -113 484 -224 703 -355 701
-1034 1169 -1812 1248 -120 12 -359 11 -480 -1z m342 -843 c71 -30 92 -98 62
-201 -127 -439 -1039 -1332 -1427 -1397 -88 -15 -131 3 -160 69 -19 42 -20 60
-15 163 35 689 545 1259 1222 1364 120 19 277 20 318 2z"/>
<path d="M30150 41393 c-122 -13 -309 -67 -411 -118 -25 -13 -88 -52 -140 -86
-86 -56 -542 -510 -5152 -5118 -4549 -4548 -5064 -5066 -5122 -5152 -298 -441
-287 -1003 29 -1419 44 -57 1702 -1721 5113 -5131 3949 -3947 5064 -5057 5123
-5096 432 -291 990 -284 1401 17 61 46 1423 1401 5077 5054 2747 2745 5027
5028 5067 5074 85 96 131 162 185 269 203 397 160 902 -108 1258 -83 110
-10152 10175 -10242 10238 -231 160 -542 240 -820 210z m269 -628 c35 -9 96
-32 135 -52 67 -34 349 -314 5122 -5087 4761 -4761 5053 -5055 5086 -5121 96
-188 89 -411 -17 -585 -24 -39 -1528 -1548 -5082 -5101 -4732 -4730 -5052
-5049 -5113 -5078 -104 -49 -178 -64 -299 -59 -117 5 -187 25 -277 79 -35 22
-1665 1646 -5102 5083 -4733 4735 -5052 5055 -5081 5116 -49 104 -64 179 -59
300 6 119 32 203 92 293 20 29 2276 2292 5073 5089 4866 4865 5040 5037 5111
5072 40 20 98 43 130 50 76 19 203 19 281 1z"/>
<path d="M30925 39250 c-166 -18 -345 -80 -490 -171 -157 -97 -325 -281 -409
-447 l-27 -53 -47 7 c-26 4 -108 17 -182 29 -74 12 -138 19 -143 16 -11 -10
10 -109 31 -145 14 -24 42 -41 127 -79 60 -26 111 -50 113 -52 3 -2 -12 -44
-31 -92 -142 -354 -107 -735 98 -1049 272 -417 784 -607 1264 -468 313 91 571
313 706 606 22 48 45 87 50 87 6 1 55 -19 109 -44 55 -25 112 -45 128 -45 35
0 82 20 126 53 l32 24 -137 109 c-75 60 -143 114 -150 119 -10 8 -6 27 17 92
132 371 56 790 -201 1101 -233 282 -620 440 -984 402z"/>
<path d="M28140 37185 c-287 -40 -492 -142 -610 -303 -96 -131 -207 -382 -325
-737 -95 -283 -245 -819 -266 -944 -22 -139 47 -293 166 -368 25 -15 45 -31
45 -35 0 -4 -18 -33 -40 -64 -22 -32 -40 -61 -40 -65 0 -14 224 -117 325 -150
78 -25 123 -33 206 -37 137 -6 197 10 267 73 l49 45 134 -92 c74 -50 135 -92
137 -93 1 -1 -21 -67 -49 -146 -240 -678 -243 -686 -221 -809 5 -30 100 -484
211 -1008 l201 -953 -419 -1037 c-231 -570 -424 -1055 -430 -1077 -20 -73 -13
-222 13 -296 78 -221 285 -360 516 -346 177 10 328 100 417 249 26 45 905
2206 944 2323 8 23 13 80 13 135 -1 81 -17 171 -116 633 -63 295 -112 537
-109 537 8 0 162 -58 166 -62 1 -2 179 -245 394 -540 215 -295 391 -546 391
-557 0 -11 -70 -496 -156 -1078 -140 -954 -155 -1068 -151 -1158 5 -118 26
-178 93 -272 117 -163 326 -244 526 -202 166 35 322 171 378 332 15 43 273
1750 370 2450 14 100 0 198 -41 287 -18 40 -192 287 -443 630 -227 311 -412
566 -410 568 1 2 662 -448 1468 -1000 1096 -749 1465 -1007 1462 -1020 -2 -11
30 -39 115 -97 l118 -81 -59 -119 c-52 -102 -133 -298 -154 -368 -6 -19 35
-50 376 -283 211 -144 405 -273 431 -287 205 -104 586 -91 832 27 147 70 210
151 234 300 30 183 -18 430 -126 649 -44 89 -69 127 -117 175 -84 84 -810 579
-836 571 -20 -6 -279 -258 -345 -334 l-37 -44 -120 82 c-87 59 -124 79 -132
71 -9 -7 -233 141 -817 541 -442 302 -811 556 -819 564 -12 13 -12 15 4 15 33
0 137 63 176 107 44 51 75 112 90 180 24 107 -34 1159 -96 1743 -97 914 -234
1446 -440 1710 -88 112 -162 166 -328 239 -144 62 -146 63 -146 95 0 81 -158
148 -239 100 -25 -15 -34 -12 -362 132 -281 123 -338 152 -352 176 -39 68
-235 157 -321 145 -37 -5 -58 0 -132 33 -49 22 -109 42 -134 45 -25 3 -72 12
-105 20 -88 20 -281 52 -430 71 -185 23 -656 28 -795 9z m668 -750 c67 -6 124
-14 127 -17 4 -4 -97 -275 -320 -863 -36 -93 -118 -313 -183 -487 l-117 -317
-102 70 -101 69 21 41 c15 30 20 60 20 113 -2 143 -90 306 -270 497 l-63 66
61 193 c70 225 151 446 200 545 30 62 38 71 74 83 98 32 381 35 653 7z m-937
-1144 c28 -42 59 -104 71 -145 29 -95 19 -127 -85 -279 -103 -152 -125 -173
-194 -193 -80 -23 -214 -6 -329 42 l-39 16 28 24 c16 13 40 24 55 24 44 0 149
56 196 105 61 62 81 108 132 307 24 95 50 186 56 202 l12 29 24 -29 c13 -16
46 -62 73 -103z m3238 -407 c68 -423 117 -940 150 -1594 16 -309 24 -600 17
-600 -5 0 -1022 693 -1035 706 -2 2 85 185 194 406 178 361 309 632 553 1144
53 112 79 157 84 145 3 -10 20 -103 37 -207z"/>
<path d="M25180 27518 c1 -744 2 -768 57 -909 139 -356 580 -592 961 -513 264
54 505 227 615 440 88 172 87 158 87 962 l0 702 -285 0 -285 0 0 -643 c0 -727
1 -714 -73 -794 -71 -77 -166 -109 -269 -91 -94 17 -167 71 -204 153 l-24 50
0 663 0 662 -290 0 -290 0 0 -682z"/>
<path d="M27210 27170 l0 -1030 275 0 275 0 2 546 3 546 355 -546 355 -546
275 2 275 3 3 1028 2 1027 -280 0 -280 0 -2 -546 -3 -545 -351 543 -350 543
-277 3 -277 2 0 -1030z"/>
<path d="M29390 27170 l0 -1031 538 4 c569 4 577 5 722 55 277 96 506 314 621
590 48 116 70 237 70 382 0 278 -93 510 -284 707 -150 155 -311 247 -527 300
-54 13 -153 17 -602 20 l-538 4 0 -1031z m1001 504 c134 -39 255 -135 316
-249 46 -88 63 -157 63 -255 0 -239 -149 -436 -379 -504 -42 -12 -101 -16
-253 -16 l-198 0 0 520 0 520 198 0 c152 0 211 -4 253 -16z"/>
<path d="M31590 27170 l0 -1030 820 0 820 0 0 245 0 245 -550 0 -550 0 0 145
0 145 518 2 517 3 0 245 0 245 -517 3 -518 2 0 140 0 140 550 0 550 0 0 250 0
250 -820 0 -820 0 0 -1030z"/>
<path d="M33520 27170 l0 -1030 285 0 285 0 0 320 0 320 171 -2 172 -3 177
-315 177 -315 312 -3 312 -2 -35 62 c-19 35 -127 225 -239 422 l-205 359 77
76 c129 129 185 262 185 441 0 180 -53 322 -167 446 -74 81 -156 144 -244 189
-129 65 -129 65 -725 65 l-538 0 0 -1030z m919 559 c105 -22 173 -99 179 -202
3 -54 -1 -68 -27 -114 -21 -36 -46 -61 -78 -80 -48 -28 -50 -28 -245 -31
l-198 -4 0 215 c0 117 3 217 7 220 11 11 308 8 362 -4z"/>
<path d="M25538 25987 c-219 -75 -354 -294 -321 -522 49 -343 441 -522 732
-335 47 30 128 106 120 114 -2 2 -46 38 -98 80 l-94 77 -36 -35 c-85 -83 -207
-86 -293 -8 -53 48 -78 102 -78 173 0 135 90 229 220 229 33 0 72 -8 98 -20
24 -11 50 -17 57 -12 21 12 173 147 174 154 2 15 -126 89 -186 108 -91 28
-207 27 -295 -3z"/>
<path d="M26411 25995 c-159 -45 -294 -182 -336 -340 -71 -274 112 -552 393
-595 232 -36 464 108 533 331 73 234 -58 501 -288 589 -76 29 -225 36 -302 15z
m196 -230 c97 -29 162 -121 163 -231 0 -140 -96 -243 -228 -244 -93 0 -168 48
-208 135 -67 143 10 309 161 346 46 11 57 10 112 -6z"/>
<path d="M28285 25996 c-100 -25 -169 -74 -211 -148 -26 -47 -29 -63 -29 -138
0 -74 3 -91 27 -131 43 -73 101 -104 285 -150 174 -43 211 -64 199 -112 -9
-38 -52 -50 -158 -45 -72 3 -108 11 -158 32 -36 15 -72 30 -81 32 -11 4 -31
-21 -72 -89 -31 -53 -57 -98 -57 -101 0 -2 35 -18 78 -34 133 -51 258 -68 386
-52 217 27 316 118 316 289 -1 170 -69 232 -333 297 -158 40 -172 46 -179 72
-23 87 120 106 290 38 l82 -33 55 95 c29 53 51 100 48 105 -10 16 -116 59
-183 73 -79 17 -237 17 -305 0z"/>
<path d="M31768 25991 c-219 -70 -367 -307 -330 -527 57 -343 443 -520 731
-334 60 38 128 108 116 118 -57 48 -174 142 -179 142 -3 0 -26 -16 -51 -35
-97 -73 -204 -72 -287 3 -54 49 -78 102 -78 177 0 76 37 146 98 189 58 41 147
48 217 17 57 -25 53 -27 164 76 l75 69 -63 42 c-120 80 -282 104 -413 63z"/>
<path d="M33929 25991 c-88 -28 -157 -71 -215 -134 -156 -168 -174 -400 -47
-595 97 -146 291 -230 469 -202 300 46 486 364 377 643 -90 230 -355 361 -584
288z m249 -247 c110 -64 151 -209 91 -326 -41 -80 -117 -127 -207 -128 -136 0
-244 123 -229 265 18 178 196 275 345 189z"/>
<path d="M27110 25535 l0 -455 120 0 120 0 2 238 3 237 154 -237 155 -238 123
0 123 0 0 455 0 455 -125 0 -125 0 -2 -236 -3 -235 -151 233 -150 233 -122 3
-122 3 0 -456z"/>
<path d="M28882 25878 l3 -113 128 -3 127 -3 0 -339 0 -340 125 0 125 0 0 340
0 339 128 3 127 3 3 113 3 112 -386 0 -386 0 3 -112z"/>
<path d="M29720 25536 l0 -456 125 0 125 0 0 140 0 141 77 -3 77 -3 76 -135
76 -135 137 -3 c75 -1 137 -1 137 2 0 2 -47 86 -104 187 l-104 183 33 30 c56
54 80 111 80 196 0 123 -60 215 -180 278 -50 27 -51 27 -302 30 l-253 3 0
-455z m449 218 c24 -20 31 -34 31 -61 0 -75 -42 -103 -155 -103 l-75 0 0 95 0
95 84 0 c76 0 87 -3 115 -26z"/>
<path d="M30597 25983 c-11 -10 -8 -551 3 -617 26 -157 148 -274 321 -306 156
-29 351 82 407 233 21 55 22 75 22 377 l0 320 -125 0 -125 0 0 -285 c0 -219
-3 -293 -14 -318 -38 -91 -178 -95 -223 -6 -9 17 -13 104 -13 317 l0 292 -123
0 c-68 0 -127 -3 -130 -7z"/>
<path d="M32322 25878 l3 -113 128 -3 127 -3 0 -339 0 -340 125 0 125 0 0 340
0 339 128 3 127 3 3 113 3 112 -386 0 -386 0 3 -112z"/>
<path d="M33195 25978 c-3 -7 -4 -211 -3 -453 l3 -440 123 -3 122 -3 0 456 0
455 -120 0 c-87 0 -122 -3 -125 -12z"/>
<path d="M34635 25978 c-3 -7 -4 -211 -3 -453 l3 -440 120 0 120 0 3 234 2
233 145 -223 c80 -122 150 -228 156 -236 8 -9 43 -13 130 -13 l119 0 0 455 0
456 -122 -3 -123 -3 -5 -231 -5 -231 -135 210 c-74 115 -143 220 -153 233 -18
23 -24 24 -133 24 -82 0 -116 -4 -119 -12z"/>
<path d="M11324 38861 c-27 -5 -332 -367 -2238 -2653 -1213 -1457 -2206 -2650
-2206 -2653 0 -3 1242 -5 2760 -5 l2760 0 2210 2653 2211 2652 -1558 6 c-2033
8 -3900 8 -3939 0z m1636 -1041 c369 -75 695 -324 865 -660 96 -192 137 -360
137 -575 2 -354 -121 -655 -367 -900 -150 -151 -300 -244 -500 -311 -263 -88
-572 -84 -835 11 -428 155 -740 531 -815 984 -25 148 -17 379 18 511 64 243
159 414 329 588 205 211 464 336 778 376 77 10 289 -3 390 -24z"/>
<path d="M44424 38863 l-111 -4 -2164 -2596 c-1190 -1429 -2186 -2623 -2212
-2655 l-49 -58 2764 0 2765 0 2210 2653 2211 2652 -1467 6 c-1515 6 -3752 7
-3947 2z m1702 -1038 c574 -117 987 -593 1020 -1175 23 -403 -144 -790 -451
-1045 -151 -126 -323 -212 -522 -262 -98 -25 -125 -27 -293 -27 -168 0 -195 2
-293 27 -252 63 -445 174 -623 359 -166 171 -271 369 -325 608 -59 262 -19
591 102 832 190 381 561 645 982 698 98 12 307 4 403 -15z"/>
<path d="M20091 36208 l-2210 -2653 1447 -3 1447 -2 2655 2655 2655 2655
-1892 0 -1891 0 -2211 -2652z"/>
<path d="M35655 37670 c654 -655 1193 -1189 1196 -1188 8 3 1979 2368 1979
2374 0 2 -982 4 -2182 4 l-2183 0 1190 -1190z"/>
<path d="M9100 25874 c-1207 -1449 -2201 -2643 -2209 -2654 -13 -20 2 -20
2750 -19 l2764 0 2195 2635 c1207 1449 2201 2643 2209 2654 13 20 -2 20 -2750
19 l-2764 0 -2195 -2635z m3912 1213 c610 -165 1005 -726 947 -1346 -27 -292
-144 -551 -341 -757 -198 -206 -432 -332 -708 -380 -141 -24 -391 -15 -521 19
-430 113 -760 418 -898 832 -81 243 -83 540 -4 789 98 314 341 598 637 745
211 105 338 132 601 127 167 -3 202 -7 287 -29z"/>
<path d="M42102 25855 l-2212 -2655 2764 0 2764 0 2198 2638 c1208 1450 2204
2645 2212 2655 14 16 -117 17 -2749 17 l-2764 0 -2213 -2655z m4004 1250 c533
-93 948 -521 1029 -1060 102 -676 -344 -1305 -1017 -1436 -200 -39 -455 -21
-653 46 -376 126 -690 454 -801 834 -87 298 -65 620 61 896 83 184 255 392
415 504 146 103 339 185 506 215 109 20 349 20 460 1z"/>
<path d="M19430 25063 c-795 -954 -1469 -1764 -1498 -1799 l-54 -64 2765 0
2765 0 241 289 c133 159 241 293 241 298 0 9 -3002 3013 -3010 3012 -3 0 -655
-781 -1450 -1736z"/>
<path d="M34082 16262 c-519 -2479 -946 -4519 -949 -4534 l-5 -28 2812 0
c2673 0 2811 1 2806 18 -3 9 -429 2040 -946 4512 -518 2472 -943 4505 -947
4518 l-5 22 -912 0 -911 0 -943 -4508z"/>
<path d="M48487 18683 c-944 -4510 -1078 -5148 -1081 -5150 -1 -1 -283 1342
-627 2985 l-626 2987 -914 2 -914 3 -329 -1573 c-181 -864 -607 -2902 -947
-4527 -341 -1625 -619 -2958 -619 -2962 0 -5 1266 -8 2814 -8 l2813 0 12 -62
c7 -35 17 -80 22 -100 l10 -38 2424 0 c1934 0 2425 3 2425 13 -1 6 -34 167
-74 357 l-72 345 -2424 3 c-1333 1 -2428 6 -2432 10 -6 6 -158 705 -158 727 0
3 1093 6 2428 7 l2429 3 -948 4525 c-522 2489 -948 4528 -949 4533 0 4 -411 7
-913 7 l-913 0 -437 -2087z"/>
<path d="M32970 10956 c0 -4 -137 -660 -145 -693 l-5 -23 3115 0 c2960 0 3115
1 3114 18 0 9 -33 170 -72 357 l-72 340 -2968 3 c-1632 1 -2967 0 -2967 -2z"/>
<path d="M42201 9359 c-41 -195 -76 -360 -79 -366 -3 -10 625 -13 3119 -13
l3124 0 79 -383 c44 -210 82 -390 84 -399 4 -17 -157 -18 -3285 -18 l-3290 0
-27 -132 c-15 -73 -30 -141 -32 -150 -5 -17 -28 -18 -310 -18 l-304 0 0 -635
0 -635 3960 0 3960 0 0 625 0 625 2295 0 2295 0 0 640 0 640 -303 0 -304 0
-27 133 c-15 72 -30 140 -32 150 -5 16 -130 17 -2434 17 l-2428 0 -5 23 c-3
12 -15 70 -27 130 l-23 107 -831 0 c-457 0 -1792 3 -2966 7 l-2136 6 -73 -354z"/>
<path d="M32626 9308 c-15 -73 -30 -141 -32 -150 -5 -17 -28 -18 -310 -18
l-304 0 0 -640 0 -640 3955 0 3955 0 0 640 0 640 -303 0 -303 0 -30 148 -30
147 -3285 3 -3286 2 -27 -132z"/>
</g>
</svg>
