<?xml version="1.0" standalone="no"?>
<!DOCTYPE svg PUBLIC "-//W3C//DTD SVG 20010904//EN"
 "http://www.w3.org/TR/2001/REC-SVG-20010904/DTD/svg10.dtd">
<svg version="1.0" xmlns="http://www.w3.org/2000/svg"
 width="1220.000000pt" height="548.000000pt" viewBox="0 0 1220.000000 548.000000"
 preserveAspectRatio="xMidYMid meet">

<g transform="translate(0.000000,548.000000) scale(0.100000,-0.100000)"
fill="#153BC1" stroke="none">
<path d="M3010 4838 c-227 -134 -419 -247 -770 -453 -377 -221 -554 -325 -732
-431 l-168 -99 0 -1111 c0 -1046 1 -1112 18 -1126 9 -8 44 -30 77 -48 33 -17
112 -62 175 -100 63 -37 169 -99 235 -137 66 -39 183 -107 260 -152 77 -46
241 -141 365 -213 124 -72 241 -141 260 -153 19 -12 104 -62 188 -111 84 -49
165 -97 180 -106 15 -10 49 -29 77 -44 l50 -27 40 23 c53 30 171 99 465 272
135 79 310 182 390 228 80 46 231 134 335 195 250 147 371 218 420 245 114 64
231 135 237 144 5 6 7 508 5 1115 -2 969 -4 1105 -17 1113 -8 4 -55 32 -105
61 -49 30 -304 179 -565 332 -261 153 -576 338 -700 411 -375 220 -503 294
-509 294 -3 -1 -98 -55 -211 -122z m272 -507 c39 -26 395 -235 508 -298 25
-14 65 -38 90 -53 47 -29 410 -240 590 -343 58 -33 113 -67 123 -75 16 -14 17
-65 17 -812 0 -621 -3 -800 -12 -813 -7 -8 -56 -40 -108 -70 -52 -29 -216
-125 -365 -211 -148 -87 -328 -192 -400 -234 -71 -41 -173 -100 -225 -132 -52
-31 -122 -72 -155 -91 -33 -19 -69 -39 -80 -46 -11 -7 -25 -15 -31 -18 -6 -3
-40 12 -75 33 -35 22 -140 84 -234 137 -192 111 -512 297 -720 420 -77 45
-189 111 -250 146 l-110 65 -3 807 -2 807 37 23 c46 29 428 254 938 552 149
86 299 175 335 196 36 21 70 38 77 39 7 0 31 -13 55 -29z"/>
<path d="M3110 3710 c-401 -48 -651 -269 -649 -575 0 -229 132 -394 375 -471
41 -13 184 -45 317 -70 278 -52 336 -67 394 -100 63 -36 80 -111 44 -191 -41
-90 -151 -128 -371 -128 -80 0 -176 6 -215 13 -101 19 -268 75 -360 122 -52
26 -81 36 -84 28 -2 -6 -37 -78 -77 -160 -41 -82 -74 -151 -74 -153 0 -7 156
-84 213 -105 357 -130 790 -132 1066 -4 178 82 283 199 325 361 44 168 -4 335
-127 449 -113 105 -215 140 -642 220 -193 36 -288 68 -325 110 -54 62 -52 150
6 213 69 77 193 107 399 98 150 -7 256 -31 389 -88 50 -21 91 -37 93 -35 9 9
153 303 153 312 0 20 -153 83 -279 114 -174 44 -404 59 -571 40z"/>
<path d="M6218 3810 c-393 -46 -721 -276 -876 -612 -134 -291 -126 -642 21
-933 45 -89 160 -239 229 -297 208 -177 439 -263 738 -275 267 -10 547 63 798
208 l72 42 0 417 c0 267 -4 420 -10 422 -5 2 -102 2 -215 0 l-205 -3 0 -294
c0 -243 -2 -296 -14 -308 -8 -8 -61 -30 -118 -48 -96 -32 -112 -34 -233 -34
-155 1 -209 12 -333 72 -150 71 -248 183 -308 353 -22 61 -28 98 -32 197 -5
146 12 241 65 353 50 104 169 223 274 273 118 57 189 70 359 64 151 -5 197
-15 300 -67 53 -26 190 -128 190 -141 0 -5 5 -9 11 -9 12 0 309 268 309 278
-1 13 -178 156 -236 190 -219 128 -507 184 -786 152z"/>
<path d="M7708 3783 l-168 -3 -1 -993 c-1 -545 -2 -1006 -3 -1023 l-2 -31 110
-7 c143 -8 330 -8 351 0 15 6 16 34 14 283 l-2 276 274 6 c378 8 496 30 673
123 131 69 253 197 304 321 48 115 57 164 56 310 0 123 -4 150 -27 220 -28 85
-76 172 -133 241 -98 121 -319 233 -519 264 -70 12 -613 19 -927 13z m884
-412 c88 -28 156 -75 195 -134 42 -62 53 -104 53 -199 0 -194 -116 -318 -325
-349 -33 -5 -160 -9 -282 -9 l-223 0 0 361 0 361 258 -4 c229 -4 264 -7 324
-27z"/>
<path d="M9478 3783 l-138 -4 0 -189 0 -190 330 0 c257 0 330 -3 331 -12 1 -7
2 -384 3 -838 l1 -825 234 0 233 0 -1 826 c-2 666 1 828 11 836 8 6 130 11
327 12 173 1 317 4 320 6 2 3 6 86 9 186 4 147 2 183 -9 190 -13 8 -1313 9
-1651 2z"/>
</g>
</svg>
